ffmpeg started on 2016-12-05 at 03:10:50
Report written to "Output/x264/results/ffmpeg/sintelveryfast6000k.log"
Command line:
Tools/ffmpeg/ffmpeg -benchmark -y -i Input/y4m/sintel.y4m -c:v libx264 -preset veryfast -b:v 6000k -an Output/x264/encoded/sintelveryfast6000k.mkv
ffmpeg version N-82227-gdb23fde Copyright (c) 2000-2016 the FFmpeg developers
  built with gcc 5.4.0 (Ubuntu 5.4.0-6ubuntu1~16.04.2) 20160609
  configuration: --prefix=/home/jaroslav/ffmpeg_build --pkg-config-flags=--static --extra-cflags=-I/home/jaroslav/ffmpeg_build/include --extra-ldflags=-L/home/jaroslav/ffmpeg_build/lib --bindir=/home/jaroslav/bin --enable-gpl --enable-libass --enable-libfdk-aac --enable-libfreetype --enable-libmp3lame --enable-libopus --enable-libtheora --enable-libvorbis --enable-libvpx --enable-libx264 --enable-libx265 --enable-nvenc --enable-libmfx --enable-libxvid --enable-libgsm --enable-libopencore-amrnb --enable-version3 --enable-nonfree
  libavutil      55. 35.100 / 55. 35.100
  libavcodec     57. 66.101 / 57. 66.101
  libavformat    57. 57.100 / 57. 57.100
  libavdevice    57.  2.100 / 57.  2.100
  libavfilter     6. 66.100 /  6. 66.100
  libswscale      4.  3.100 /  4.  3.100
  libswresample   2.  4.100 /  2.  4.100
  libpostproc    54.  2.100 / 54.  2.100
Input #0, yuv4mpegpipe, from 'Input/y4m/sintel.y4m':
  Duration: 00:00:20.83, start: 0.000000, bitrate: 2057307 kb/s
    Stream #0:0: Video: rawvideo (I420 / 0x30323449), yuv420p(progressive), 4096x1744, SAR 1:1 DAR 256:109, 24 fps, 24 tbr, 24 tbn, 24 tbc
[libx264 @ 0x2bdb1c0] using SAR=1/1
[libx264 @ 0x2bdb1c0] using cpu capabilities: MMX2 SSE2Fast SSSE3 SSE4.2 AVX FMA3 AVX2 LZCNT BMI2
[libx264 @ 0x2bdb1c0] profile High, level 5.1
[libx264 @ 0x2bdb1c0] 264 - core 148 - H.264/MPEG-4 AVC codec - Copyleft 2003-2016 - http://www.videolan.org/x264.html - options: cabac=1 ref=1 deblock=1:0:0 analyse=0x3:0x113 me=hex subme=2 psy=1 psy_rd=1.00:0.00 mixed_ref=0 me_range=16 chroma_me=1 trellis=0 8x8dct=1 cqm=0 deadzone=21,11 fast_pskip=1 chroma_qp_offset=0 threads=6 lookahead_threads=2 sliced_threads=0 nr=0 decimate=1 interlaced=0 bluray_compat=0 constrained_intra=0 bframes=3 b_pyramid=2 b_adapt=1 b_bias=0 direct=1 weightb=1 open_gop=0 weightp=1 keyint=250 keyint_min=24 scenecut=40 intra_refresh=0 rc_lookahead=10 rc=abr mbtree=1 bitrate=6000 ratetol=1.0 qcomp=0.60 qpmin=0 qpmax=69 qpstep=4 ip_ratio=1.40 aq=1:1.00
Output #0, matroska, to 'Output/x264/encoded/sintelveryfast6000k.mkv':
  Metadata:
    encoder         : Lavf57.57.100
    Stream #0:0: Video: h264 (libx264) (H264 / 0x34363248), yuv420p, 4096x1744 [SAR 1:1 DAR 256:109], q=-1--1, 6000 kb/s, 24 fps, 1k tbn, 24 tbc
    Metadata:
      encoder         : Lavc57.66.101 libx264
    Side data:
      cpb: bitrate max/min/avg: 0/0/6000000 buffer size: 0 vbv_delay: -1
Stream mapping:
  Stream #0:0 -> #0:0 (rawvideo (native) -> h264 (libx264))
Press [q] to stop, [?] for help
frame=    9 fps=0.0 q=0.0 size=       0kB time=00:00:00.00 bitrate=N/A speed=   0x    frame=   17 fps= 16 q=0.0 size=       0kB time=00:00:00.00 bitrate=N/A speed=   0x    frame=   24 fps= 15 q=38.0 size=       1kB time=00:00:00.04 bitrate= 136.4kbits/s speed=0.0266x    frame=   33 fps= 14 q=46.0 size=       1kB time=00:00:00.41 bitrate=  14.0kbits/s speed=0.174x    frame=   46 fps= 16 q=44.0 size=       1kB time=00:00:00.95 bitrate=   6.1kbits/s speed=0.325x    frame=   58 fps= 17 q=43.0 size=       1kB time=00:00:01.45 bitrate=   4.0kbits/s speed=0.421x    frame=   70 fps= 18 q=42.0 size=       1kB time=00:00:01.95 bitrate=   3.0kbits/s speed=0.49x    frame=   78 fps= 17 q=42.0 size=       1kB time=00:00:02.29 bitrate=   2.6kbits/s speed=0.494x    frame=   79 fps= 15 q=42.0 size=       1kB time=00:00:02.33 bitrate=   2.5kbits/s speed=0.445x    frame=   80 fps= 10 q=42.0 size=       1kB time=00:00:02.37 bitrate=   2.5kbits/s speed=0.298x    frame=   81 fps=8.7 q=42.0 size=       1kB time=00:00:02.41 bitrate=   2.4kbits/s speed=0.259x    frame=   82 fps=7.7 q=42.0 size=       1kB time=00:00:02.45 bitrate=   2.4kbits/s speed=0.229x    frame=   93 fps=8.3 q=42.0 size=       1kB time=00:00:02.91 bitrate=   2.0kbits/s speed=0.259x    frame=  104 fps=8.8 q=41.0 size=       1kB time=00:00:03.37 bitrate=   1.7kbits/s speed=0.287x    frame=  114 fps=9.1 q=41.0 size=       1kB time=00:00:03.79 bitrate=   1.5kbits/s speed=0.302x    frame=  128 fps=9.8 q=40.0 size=    3315kB time=00:00:04.37 bitrate=6204.9kbits/s speed=0.334x    frame=  140 fps= 10 q=40.0 size=    3315kB time=00:00:04.87 bitrate=5568.7kbits/s speed=0.358x    frame=  152 fps= 11 q=40.0 size=    3315kB time=00:00:05.37 bitrate=5050.7kbits/s speed=0.38x    frame=  164 fps= 11 q=40.0 size=    3315kB time=00:00:05.87 bitrate=4621.0kbits/s speed= 0.4x    frame=  176 fps= 12 q=40.0 size=    3315kB time=00:00:06.37 bitrate=4258.6kbits/s speed=0.42x    frame=  188 fps= 12 q=39.0 size=    4834kB time=00:00:06.87 bitrate=5759.4kbits/s speed=0.437x    frame=  200 fps= 12 q=39.0 size=    4834kB time=00:00:07.37 bitrate=5369.0kbits/s speed=0.451x    frame=  213 fps= 13 q=39.0 size=    5460kB time=00:00:07.91 bitrate=5649.2kbits/s speed=0.469x    frame=  225 fps= 13 q=39.0 size=    5460kB time=00:00:08.41 bitrate=5313.7kbits/s speed=0.483x    frame=  236 fps= 13 q=38.0 size=    5460kB time=00:00:08.87 bitrate=5039.5kbits/s speed=0.489x    frame=  250 fps= 13 q=38.0 size=    5460kB time=00:00:09.45 bitrate=4728.9kbits/s speed=0.507x    frame=  263 fps= 14 q=38.0 size=    5460kB time=00:00:10.00 bitrate=4472.6kbits/s speed=0.521x    frame=  276 fps= 14 q=37.0 size=    5460kB time=00:00:10.54 bitrate=4242.7kbits/s speed=0.535x    frame=  290 fps= 14 q=37.0 size=    7316kB time=00:00:11.12 bitrate=5386.4kbits/s speed=0.549x    frame=  303 fps= 15 q=37.0 size=    7316kB time=00:00:11.66 bitrate=5136.2kbits/s speed=0.562x    frame=  319 fps= 15 q=36.0 size=    7316kB time=00:00:12.33 bitrate=4858.8kbits/s speed=0.579x    frame=  335 fps= 15 q=35.0 size=    7316kB time=00:00:13.00 bitrate=4609.6kbits/s speed=0.597x    frame=  352 fps= 16 q=35.0 size=    7316kB time=00:00:13.70 bitrate=4371.5kbits/s speed=0.614x    frame=  370 fps= 16 q=33.0 size=    7316kB time=00:00:14.45 bitrate=4144.7kbits/s speed=0.633x    frame=  381 fps= 16 q=33.0 size=    7316kB time=00:00:14.91 bitrate=4017.2kbits/s speed=0.639x    frame=  394 fps= 17 q=33.0 size=    8961kB time=00:00:15.45 bitrate=4748.4kbits/s speed=0.648x    frame=  407 fps= 17 q=33.0 size=    8961kB time=00:00:16.00 bitrate=4587.6kbits/s speed=0.656x    frame=  420 fps= 17 q=33.0 size=    8961kB time=00:00:16.54 bitrate=4437.3kbits/s speed=0.664x    frame=  433 fps= 17 q=33.0 size=    8961kB time=00:00:17.08 bitrate=4296.7kbits/s speed=0.671x    frame=  445 fps= 17 q=33.0 size=   10677kB time=00:00:17.58 bitrate=4974.2kbits/s speed=0.678x    frame=  459 fps= 17 q=33.0 size=   10677kB time=00:00:18.16 bitrate=4814.4kbits/s speed=0.687x    frame=  472 fps= 18 q=33.0 size=   10677kB time=00:00:18.70 bitrate=4675.1kbits/s speed=0.694x    frame=  480 fps= 17 q=33.0 size=   10677kB time=00:00:19.04 bitrate=4593.1kbits/s speed=0.693x    frame=  488 fps= 17 q=33.0 size=   10677kB time=00:00:19.37 bitrate=4514.2kbits/s speed=0.683x    frame=  500 fps= 17 q=-1.0 Lsize=   12961kB time=00:00:20.70 bitrate=5126.9kbits/s speed=0.712x    
video:12956kB audio:0kB subtitle:0kB other streams:0kB global headers:0kB muxing overhead: 0.036610%
bench: utime=70.140s
bench: maxrss=930804kB
[libx264 @ 0x2bdb1c0] frame I:8     Avg QP:28.36  size: 98985
[libx264 @ 0x2bdb1c0] frame P:284   Avg QP:33.51  size: 32780
[libx264 @ 0x2bdb1c0] frame B:208   Avg QP:31.24  size: 15215
[libx264 @ 0x2bdb1c0] consecutive B-frames: 41.2%  8.0%  6.0% 44.8%
[libx264 @ 0x2bdb1c0] mb I  I16..4: 39.2% 56.7%  4.1%
[libx264 @ 0x2bdb1c0] mb P  I16..4: 17.2% 18.3%  0.1%  P16..4:  9.8%  3.2%  0.7%  0.0%  0.0%    skip:50.7%
[libx264 @ 0x2bdb1c0] mb B  I16..4:  2.4%  1.9%  0.0%  B16..8:  9.5%  2.1%  0.1%  direct: 1.5%  skip:82.5%  L0:43.2% L1:50.1% BI: 6.6%
[libx264 @ 0x2bdb1c0] final ratefactor: 30.57
[libx264 @ 0x2bdb1c0] 8x8 transform intra:51.1% inter:60.7%
[libx264 @ 0x2bdb1c0] coded y,uvDC,uvAC intra: 14.9% 13.8% 0.6% inter: 1.7% 2.7% 0.0%
[libx264 @ 0x2bdb1c0] i16 v,h,dc,p: 48% 28% 13% 11%
[libx264 @ 0x2bdb1c0] i8 v,h,dc,ddl,ddr,vr,hd,vl,hu: 16% 23% 48%  3%  2%  2%  2%  2%  3%
[libx264 @ 0x2bdb1c0] i4 v,h,dc,ddl,ddr,vr,hd,vl,hu: 18% 24% 13%  8%  8%  6%  9%  5%  8%
[libx264 @ 0x2bdb1c0] i8c dc,h,v,p: 78% 11% 11%  1%
[libx264 @ 0x2bdb1c0] Weighted P-Frames: Y:0.4% UV:0.0%
[libx264 @ 0x2bdb1c0] kb/s:5094.18
